<svg xmlns="http://www.w3.org/2000/svg" xmlns:xlink="http://www.w3.org/1999/xlink" width="500" zoomAndPan="magnify" viewBox="0 0 375 374.999991" height="500" preserveAspectRatio="xMidYMid meet" version="1.0"><defs><clipPath id="4ab9bcb409"><path d="M 33.808594 33.796875 L 341.304688 33.796875 L 341.304688 341.296875 L 33.808594 341.296875 Z M 33.808594 33.796875 " clip-rule="nonzero"/></clipPath><clipPath id="b13ceaa21f"><path d="M 341.183594 96.046875 L 341.183594 278.945312 C 341.183594 313.324219 313.316406 341.191406 278.9375 341.191406 L 96.054688 341.191406 C 61.675781 341.191406 33.808594 313.324219 33.808594 278.945312 L 33.808594 96.046875 C 33.808594 61.667969 61.675781 33.796875 96.054688 33.796875 L 278.9375 33.796875 C 313.316406 33.796875 341.183594 61.667969 341.183594 96.046875 Z M 341.183594 96.046875 " clip-rule="nonzero"/></clipPath></defs><rect x="-37.5" width="450" fill="#ffffff" y="-37.499999" height="449.999989" fill-opacity="1"/><rect x="-37.5" width="450" fill="#19191c" y="-37.499999" height="449.999989" fill-opacity="1"/><g clip-path="url(#4ab9bcb409)"><g clip-path="url(#b13ceaa21f)"><path stroke-linecap="butt" transform="matrix(0.75, 0, 0, 0.75, 33.806703, 33.798748)" fill="none" stroke-linejoin="miter" d="M 409.835882 82.997508 L 409.835882 326.862108 C 409.835882 372.700652 372.679629 409.856905 326.841084 409.856905 L 82.997318 409.856905 C 37.158774 409.856905 0.00252132 372.700652 0.00252132 326.862108 L 0.00252132 82.997508 C 0.00252132 37.158964 37.158774 -0.00249704 82.997318 -0.00249704 L 326.841084 -0.00249704 C 372.679629 -0.00249704 409.835882 37.158964 409.835882 82.997508 Z M 409.835882 82.997508 " stroke="#ffffff" stroke-width="20" stroke-opacity="1" stroke-miterlimit="4"/></g></g><path stroke-linecap="round" transform="matrix(0.576764, -0.47942, 0.47942, 0.576764, 143.810738, 184.297517)" fill="none" stroke-linejoin="miter" d="M 16.99911 17.00058 L 164.515731 17.000127 " stroke="#ffffff" stroke-width="34" stroke-opacity="1" stroke-miterlimit="4"/><path stroke-linecap="round" transform="matrix(0.574078, 0.482633, -0.482633, 0.574078, 159.632044, 170.595589)" fill="none" stroke-linejoin="miter" d="M 16.999988 16.99813 L 164.513211 16.999103 " stroke="#ffffff" stroke-width="34" stroke-opacity="1" stroke-miterlimit="4"/><path stroke-linecap="round" transform="matrix(-0.576764, 0.47942, -0.47942, -0.576764, 231.178583, 190.702459)" fill="none" stroke-linejoin="miter" d="M 17.000198 17.001441 L 164.512813 16.997658 " stroke="#ffffff" stroke-width="34" stroke-opacity="1" stroke-miterlimit="4"/><path stroke-linecap="round" transform="matrix(-0.574078, -0.482633, 0.482633, -0.574078, 215.357261, 204.404401)" fill="none" stroke-linejoin="miter" d="M 17.001024 16.997242 L 164.514247 16.998215 " stroke="#ffffff" stroke-width="34" stroke-opacity="1" stroke-miterlimit="4"/></svg>